<svg id="Layer_1" data-name="Layer 1" xmlns="http://www.w3.org/2000/svg" viewBox="0 0 90 90"><defs><style>.cls-1{fill:#fff;}</style></defs><path class="cls-1" d="M84,53.39l-.23.46a2.78,2.78,0,0,1-3,1.63,2.71,2.71,0,0,1-2.28-2.66c-.05-2.13,0-4.26-.06-6.4q0-6.66-.08-13.32a1.7,1.7,0,0,0,0-.68c-.1-.19-.34-.43-.52-.43s-.42.26-.5.46a2.08,2.08,0,0,0,0,.75V78.43c0,1.92-.83,3.16-2.4,3.62a3.25,3.25,0,0,1-4.16-2.67,9.31,9.31,0,0,1-.08-1.29V52.48H69.23V78.59a3.32,3.32,0,0,1-3.53,3.59,3.24,3.24,0,0,1-3-2.88c0-.43,0-.86,0-1.29q0-22.4,0-44.77c0-.49.23-1.26-.55-1.27s-.61.78-.61,1.3q0,4.44,0,8.9A2.89,2.89,0,0,1,60,45a2.85,2.85,0,0,1-3.09-.26c-3.1-1.94-6.2-3.85-9.3-5.78a2.77,2.77,0,0,1,.71-5.13,2.89,2.89,0,0,1,2.25.47l4.65,2.89.75.43c0-1.68,0-3.24,0-4.81A6.61,6.61,0,0,1,62.57,26c.69,0,1.37,0,2.06,0,.5,0,.69.17.86.61.82,2.13,1.68,4.25,2.52,6.36a2.18,2.18,0,0,0,.48.79,10.51,10.51,0,0,0-.3-1.35,2.88,2.88,0,0,1,.41-2.87,1.58,1.58,0,0,0,0-2.18,3.08,3.08,0,0,1-.33-.59c-.23-.45-.06-.71.41-.73.83,0,1.67,0,2.51,0,.42,0,.58.27.4.68a.29.29,0,0,1-.08.13c-1,1.13-.73,2.18,0,3.33a3.1,3.1,0,0,1,.2,1.73c-.06.72-.27,1.43-.28,2.18L74.6,26c2.07,0,4.14-.26,6,.89a6.29,6.29,0,0,1,3.19,5c.12,1.33.06,2.68.09,4,0,.45.06.9.09,1.36Z"/><path class="cls-1" d="M50.91,44.43h-.74c-13.83,0-27.67,0-41.5,0A2.36,2.36,0,0,1,6,41.8q.07-15.73,0-31.45A2.33,2.33,0,0,1,8.56,7.81q21.48.06,42.94,0a2.32,2.32,0,0,1,2.55,2.55C54,17.67,54,25,54,32.29v.79l-4-2.17V11.85H10V40.46h1q16.67,0,33.34,0a2.8,2.8,0,0,1,1.3.44c1.54.93,3.05,1.91,4.57,2.88l.76.48Z"/><path class="cls-1" d="M75.64,18.4a5.71,5.71,0,1,1-5.72-5.69A5.73,5.73,0,0,1,75.64,18.4Z"/><path class="cls-1" d="M45.8,31.8l-2,2.31L38,29.52a8,8,0,0,1-1-.85,1.49,1.49,0,0,1,1.81-2.31.78.78,0,0,1,.2.11Z"/></svg>