<svg id="Layer_1" data-name="Layer 1" xmlns="http://www.w3.org/2000/svg" viewBox="0 0 90 90"><defs><style>.cls-1{fill:#fff;}</style></defs><path class="cls-1" d="M21.86,66.81l-3.25-.35v.86c0,1.52,0,3,0,4.57a2.2,2.2,0,0,1-.16.66.91.91,0,0,1-1.11.57,2.18,2.18,0,0,1-1.79-2.21c0-1.33,0-2.66,0-4V65.8l-1.67-.49v1.46c0,1.12,0,2.23,0,3.35a2.07,2.07,0,0,1-.15.73.89.89,0,0,1-.83.59,1.94,1.94,0,0,1-1.9-1,2.87,2.87,0,0,1-.45-1.57c0-1.5,0-3,0-4.5,0-.13,0-.26,0-.4l-.89-.48a16.5,16.5,0,0,1-2.37-1.57.45.45,0,0,1-.18-.52c.86-3.73,1.7-7.46,2.55-11.19.38-1.65.75-3.3,1.13-5a.87.87,0,0,0-.08-.65Q9.32,42,8,39.47c-1.6-3.07-3.21-6.15-4.79-9.23a1.83,1.83,0,0,1,0-1.73A1.28,1.28,0,0,1,4.81,28a2.37,2.37,0,0,1,1.3,1.19c.59,1.12,1.18,2.25,1.75,3.39.87,1.73,1.72,3.48,2.57,5.23a.55.55,0,0,0,.41.34c.58.11,1.15.24,1.73.37h.15a.52.52,0,0,0-.28-.56,6.23,6.23,0,0,1-2.57-3.28,2.68,2.68,0,0,1-.18-1.31,2.13,2.13,0,0,1,1.09-1.61,3.67,3.67,0,0,1,2.29-.47,5.4,5.4,0,0,1,3.21,1.56,5.4,5.4,0,0,1,1.62,2.54A3.35,3.35,0,0,1,18,36.93a2.39,2.39,0,0,1-2,1.93l-.56.07c0,.45,0,.45.35.61l2.08.91c.09-.17.2-.35.28-.53C19,38,19.88,36.1,20.75,34.17a14.71,14.71,0,0,0,.52-1.45,6.32,6.32,0,0,1,.82-1.84,1.06,1.06,0,0,1,1-.5,1.57,1.57,0,0,1,1,.43,2,2,0,0,1,.34.41c.28.47.57.94.81,1.44,1.12,2.36,2.22,4.74,3.32,7.1l1.41,3,2.25.38c.11-.45.1-.45-.21-.68a6.15,6.15,0,0,1-2.43-3.34,3.52,3.52,0,0,1-.07-1.85,2.66,2.66,0,0,1,2.31-2.07,4.53,4.53,0,0,1,2.36.34,7.54,7.54,0,0,1,3.4,2.84,3.66,3.66,0,0,1,.68,2.24,3.1,3.1,0,0,1-1.66,2.61,4.09,4.09,0,0,1-1.11.26,3.29,3.29,0,0,1-.36,0l-.07.41a12.89,12.89,0,0,1,1.74.76c.48-.57,1-1.14,1.47-1.71,1.6-1.89,3.21-3.77,4.8-5.66a3,3,0,0,1,1.57-.88,1.45,1.45,0,0,1,1.61.88q1,2.34,1.94,4.69l2.28,5.64c0,.12.11.23.18.41.14-.32.4-.36.65-.42l1.5-.36-.07-.62-.15-.06A3.07,3.07,0,0,1,50,42.54,4.93,4.93,0,0,1,53.87,39a3.79,3.79,0,0,1,2.37.2,3,3,0,0,1,1.81,3.13,4.76,4.76,0,0,1-2.33,3.54l-.33.21,0,.38,0,.4h1.86c.26-.69.53-1.36.78-2l4-10.56c.19-.48.36-1,.54-1.45a1.69,1.69,0,0,1,1.79-1,1.15,1.15,0,0,1,.59.32,3.56,3.56,0,0,1,.77,1.12c.26.55.48,1.12.74,1.68a4.92,4.92,0,0,0,.45.81q1.62,2.28,3.26,4.54l.19.23,2-.65.08-.49c-.23-.05-.42-.09-.62-.15a3,3,0,0,1-2.07-4,5.24,5.24,0,0,1,3.76-3.59,4.25,4.25,0,0,1,3.51.43,2.74,2.74,0,0,1,1.35,1.78,2.67,2.67,0,0,1-.13,1.56,5.89,5.89,0,0,1-1.52,2.37,8.93,8.93,0,0,1-1.18.83c-.29.19-.3.18-.34.59l.35,0c.42-.06.83-.14,1.25-.18a.63.63,0,0,0,.53-.34c2.06-3.34,4.12-6.66,6.17-10a3.31,3.31,0,0,1,1-1.09,1.4,1.4,0,0,1,1.62-.07A1.08,1.08,0,0,1,86.68,29c-.12.27-.29.5-.43.75l-7.54,12.9c-.41.71-.83,1.41-1.25,2.1a.77.77,0,0,0-.11.61Q78.67,51.74,80,58.12q.66,3.23,1.34,6.45s0,.07,0,.14A19.82,19.82,0,0,1,78,66.25v5.2a2.73,2.73,0,0,1-1.86,2.38,2.26,2.26,0,0,1-.82,0,1.27,1.27,0,0,1-1.07-1.22q0-.35,0-.69c0-1.12,0-2.25,0-3.38V67.31l-1.77.34v1.26l0,4A2.89,2.89,0,0,1,72,74.29a2.21,2.21,0,0,1-1.93,1.19,1,1,0,0,1-1-.62,2.37,2.37,0,0,1-.24-1c0-1.36-.09-2.71-.12-4.07,0-.54,0-1.07,0-1.64l-3,.16c0-.25.07-.45.11-.64.74-3.7,1.47-7.41,2.22-11.11q1-4.91,2-9.8a.93.93,0,0,0-.15-.74c-2-2.93-3.92-5.87-5.74-8.89,0-.06-.08-.11-.14-.2a2.72,2.72,0,0,0-.12.25L60.5,45.63q-1,2.5-2,5a1.13,1.13,0,0,0-.07.55c.17,1.45.32,2.89.47,4.33.18,1.65.37,3.3.54,4.94.16,1.43.31,2.86.47,4.3s.31,2.84.46,4.25c.08.76.16,1.51.25,2.27a12,12,0,0,1-2.94,1.34c0,.56,0,1.12-.08,1.69,0,1-.07,2-.14,3A2.54,2.54,0,0,1,56.67,79a1.49,1.49,0,0,1-1,.4.86.86,0,0,1-.87-.52,2.55,2.55,0,0,1-.23-.86c0-.45,0-.91,0-1.36v-3.1c0-.06,0-.12,0-.22l-1.42.21c0,.43,0,.85-.07,1.26,0,1.14-.09,2.28-.14,3.42a2,2,0,0,1-1.42,1.84,1.09,1.09,0,0,1-1.39-.51,2.12,2.12,0,0,1-.31-1.1c0-1.39,0-2.78,0-4.18v-.42L46.6,74c0-.25,0-.45,0-.64l.63-4.89L48,63.06c.2-1.58.4-3.17.61-4.75s.41-3.19.62-4.78c0-.21.07-.43.07-.64a1.1,1.1,0,0,0-.08-.48l-4.59-9.9-.39-.85a1.52,1.52,0,0,0-.18.18,61.71,61.71,0,0,1-4.69,5.27c-.54.56-1.08,1.12-1.64,1.67a.49.49,0,0,0-.15.51l1,5.24c.39,2.18.8,4.36,1.19,6.54.48,2.61.95,5.22,1.43,7.83.09.49.17,1,.26,1.51a10.23,10.23,0,0,1-1.67-.07c-.55,0-1.09-.11-1.65-.16a2.81,2.81,0,0,0,0,.91c0,.7,0,1.41,0,2.12,0,1.37,0,2.74,0,4.1,0,.41,0,.82,0,1.23a1.72,1.72,0,0,1-.75,1.37,1.28,1.28,0,0,1-1.11.13,2.56,2.56,0,0,1-1.88-2.34c0-.86-.06-1.72-.06-2.59,0-1.72,0-3.43,0-5.15v-.42l-1.78-.44v.4c0,2.18,0,4.37,0,6.56,0,.42,0,.84,0,1.25a2.76,2.76,0,0,1-.09.71,1.25,1.25,0,0,1-1.61,1,2.08,2.08,0,0,1-1.57-1.39A3.94,3.94,0,0,1,29,76.14C29,75.08,29,74,29,73c0-1.64,0-3.29,0-4.93,0-.05,0-.1,0-.17a17.47,17.47,0,0,1-3.2-1.74L26,64.78l1-6,1.11-6.71c.24-1.44.47-2.89.72-4.33a.64.64,0,0,0-.08-.41l-3.12-6.45-2.16-4.47c0-.07-.07-.14-.13-.25l-.15.28L18.38,47.55a1,1,0,0,0-.06.53c.54,2.81,1.08,5.63,1.61,8.44L21.34,64c.15.82.31,1.65.46,2.47C21.82,66.53,21.83,66.63,21.86,66.81Z"/><path class="cls-1" d="M86.81,26.59a11,11,0,0,0-1.14-.27,2.75,2.75,0,0,0-2.11.65,4.42,4.42,0,0,0-1.07,1.25,1,1,0,0,1-.51.42,28.46,28.46,0,0,1-3.71,1.16c-.38.09-.77.15-1.18.23v.7l-.27-.07a6.24,6.24,0,0,0-6.25,1.57,8.17,8.17,0,0,0-1.76,2.57c-.14.28-.27.58-.43.91a7.06,7.06,0,0,1-.76-1.39.62.62,0,0,1,0-.37c.48-1.48,1-3,1.45-4.41a.86.86,0,0,0,0-.65L65.24,19l-.13-.32-.15.2-4.14,6.24c-.42.63-.82,1.27-1.25,1.89a.72.72,0,0,0-.12.51c.11,1,.21,2.08.32,3.11l.33,3.15c0,.49.11,1,.15,1.47a1.18,1.18,0,0,1-.08.49l-1.24,3c-.1.25-.16.52-.26.81,0,0-.09,0-.11-.08A4.07,4.07,0,0,0,56,37.92a5.64,5.64,0,0,0-4.43.86,9.42,9.42,0,0,0-1.89,1.61l-.2.21h-.07c-.16-.39-.34-.78-.48-1.18a.74.74,0,0,1,0-.39c.2-1.29.39-2.58.6-3.87l.9-5.69c.11-.67.22-1.35.34-2a1.56,1.56,0,0,0,0-.71l-3.9-12.43-.08-.2a2.15,2.15,0,0,0-.18.23c-1.79,3-3.77,5.83-5.74,8.68a1.08,1.08,0,0,0-.2.6,8.86,8.86,0,0,0,.25,1.92c.47,2.6,1,5.19,1.42,7.79.13.74.26,1.49.41,2.23a.49.49,0,0,1-.22.57,4.34,4.34,0,0,0-.72.7c-.73.85-1.43,1.71-2.15,2.57l-.12.13c0-.08-.11-.14-.14-.2-.16-.31-.32-.62-.46-.94a5.61,5.61,0,0,0-1.16-1.72,11.67,11.67,0,0,0-2.24-1.85A6.38,6.38,0,0,0,32,34l-.75,0c0-.34.07-.67.12-1,.33-2.23.67-4.46,1-6.69,0-.21.05-.43.1-.64a.73.73,0,0,0-.15-.66c-1.54-2.11-3.06-4.22-4.59-6.33-.32-.44-.63-.9-1-1.39a1,1,0,0,0-.1.22Q25,23,23.46,28.53a1.15,1.15,0,0,0,0,.49,2.8,2.8,0,0,0,.11.47l-.33,0a2,2,0,0,0-1.93.62.66.66,0,0,0-.15.19c-.25.5-.52,1-.74,1.48-.41,1-.78,1.94-1.17,2.9-.06.13-.13.25-.21.43a1.26,1.26,0,0,1-.09-.21,5.46,5.46,0,0,0-1.55-2.43,7.51,7.51,0,0,0-2.3-1.67l0-.39c-.5-.09-1-.16-1.49-.26l-4.39-.94c-.49-.1-1-.18-1.46-.25a.59.59,0,0,1-.46-.27,9.86,9.86,0,0,0-.7-.87,3.14,3.14,0,0,0-2-1l-.32,0a1,1,0,0,1,.6-.88,1.44,1.44,0,0,1,.84-.13l5.09.54,4.54.49a.37.37,0,0,0,.21,0l1.4-.54-.08-.35L16,25.66a1,1,0,0,1-.24-.05,3.2,3.2,0,0,1-2-2.54,3.59,3.59,0,0,1,.72-2.33,5.57,5.57,0,0,1,2.89-2.15,3.82,3.82,0,0,1,2.34,0,2.79,2.79,0,0,1,1.89,2.94,4.64,4.64,0,0,1-2,3.36l-.31.23.06.42,2.26-.28c.17-.53.32-1.06.49-1.58.62-2,1.25-4,1.86-6,.3-1,.56-2,.83-2.94.05-.15.11-.29.17-.44a5.49,5.49,0,0,0,.2-.57,1.18,1.18,0,0,1,.72-.84,1.7,1.7,0,0,1,2.16.7c1.51,2.61,3.26,5.07,4.88,7.61l.1.11,1.77-.78,0-.44L34.53,20a3.18,3.18,0,0,1-2.32-4.31,4.71,4.71,0,0,1,3.37-3,4.21,4.21,0,0,1,3.51.52,2.86,2.86,0,0,1,1.37,1.88,2.5,2.5,0,0,1-.09,1.38A5.87,5.87,0,0,1,39,18.66a6.36,6.36,0,0,1-1.27.87c-.27.16-.28.16-.25.54l.67-.09c.42-.06.83-.13,1.25-.18a.57.57,0,0,0,.47-.32c1-1.58,2-3.17,3-4.74.82-1.27,1.66-2.53,2.49-3.79a3,3,0,0,1,.94-.92,1.58,1.58,0,0,1,2.26.86c1.15,3.63,2.33,7.26,3.5,10.89,0,.11.07.22.11.34l2.26.52a6.23,6.23,0,0,0-.12-.79c0-.1-.16-.19-.27-.26a5.1,5.1,0,0,1-1.87-2.14,3.52,3.52,0,0,1-.34-2.14A2.73,2.73,0,0,1,54.12,15a4.32,4.32,0,0,1,3.29.73,4.68,4.68,0,0,1,2.14,3.16,2.86,2.86,0,0,1-2.35,3.42l-.32.06,0,.8,1.19.44.24-.33L64,15a2.71,2.71,0,0,0,.21-.37.73.73,0,0,1,.75-.45,2,2,0,0,1,1.61.95A3.32,3.32,0,0,1,67,16a61.86,61.86,0,0,0,3.42,8.74c.07.16.14.29.35.32.6.08,1.2.19,1.81.29a1.43,1.43,0,0,0,.21,0l.08-.39c-.37-.34-.75-.65-1.06-1a4.53,4.53,0,0,1-1.22-3.15,3,3,0,0,1,3-3,4.82,4.82,0,0,1,3.9,1.82,4.81,4.81,0,0,1,1.05,1.62,3.75,3.75,0,0,1,.25,1.48,3.21,3.21,0,0,1-1.94,2.7,6.1,6.1,0,0,1-1.38.3l-.11.34c.27.11.52.23.78.31a.6.6,0,0,0,.35,0l7.59-1.81c.42-.1.84-.2,1.27-.27a1.81,1.81,0,0,1,.57,0,1.13,1.13,0,0,1,1,.92A2.2,2.2,0,0,1,86.81,26.59Z"/><path class="cls-1" d="M23.46,39.09c.25.51.47.95.68,1.39q1.48,3.08,3,6.14a1.23,1.23,0,0,0,.19.31.92.92,0,0,1,.2.84c0,.22-.09.44-.15.67l-.92.28a1.91,1.91,0,0,0,0,.24c.08,1.13.18,2.25.24,3.38a7.34,7.34,0,0,1-.1,1.32c-.13,1-.29,1.92-.42,2.88a.46.46,0,0,1-.34.41,1,1,0,0,1-1.52-.85,16.21,16.21,0,0,1-.15-1.71l-.36-4.63a1,1,0,0,0,0-.19l-3.18.72c0-.26,0-.48-.07-.7-.1-.68-.2-1.35-.29-2a1,1,0,0,1,.05-.46l3.07-7.75Z"/><path class="cls-1" d="M66.87,52.22l-.51-.1c0,.28-.1.56-.13.84-.15,1.31-.3,2.62-.46,3.93a2.45,2.45,0,0,1-.19.69,1.25,1.25,0,0,1-2,.46,1.66,1.66,0,0,1-.49-.73,3.33,3.33,0,0,1-.18-1.53c.12-.94.26-1.87.38-2.81,0-.32.06-.64.1-1l-1.4-.4,3-9.35H65c.19.32.4.64.58,1a15.2,15.2,0,0,0,1.93,2.85.55.55,0,0,1,.16.49c-.26,1.8-.51,3.6-.77,5.41A2.08,2.08,0,0,1,66.87,52.22Z"/><path class="cls-1" d="M44.89,48.22l-2,.46c0,.14,0,.27,0,.4.07,1,.16,2,.21,2.94a2.44,2.44,0,0,1-.91,2,1.4,1.4,0,0,1-1.18.32,1.09,1.09,0,0,1-.93-.7,2.65,2.65,0,0,1-.2-.83c-.07-1.21-.1-2.43-.16-3.64a.85.85,0,0,1,.22-.64c1.33-1.49,2.63-3,3.94-4.5l.24-.26c.18.76.27,1.49.4,2.21S44.76,47.44,44.89,48.22Z"/><path class="cls-1" d="M61.47,46.83l.32,3.07-1-.31c-.06.42-.11.81-.15,1.2-.1.94-.19,1.88-.28,2.82a1.46,1.46,0,0,1-.34.81c-.05-.46-.12-.93-.17-1.4s-.09-1.17-.17-1.75a1.4,1.4,0,0,1,.12-.7c.35-.83.69-1.66,1-2.49.15-.36.29-.73.44-1.1a.82.82,0,0,1,.11-.17Z"/></svg>