<svg id="Layer_1" data-name="Layer 1" xmlns="http://www.w3.org/2000/svg" viewBox="0 0 90 90"><defs><style>.cls-1{fill:#fff;}</style></defs><path class="cls-1" d="M46,33.68l-.19-.24a25.42,25.42,0,0,0-3.48-3.92,13.86,13.86,0,0,0-1.36-1,3.73,3.73,0,0,0-2.05-.59,13.56,13.56,0,0,0-3.42.4l-.34.07s0,0-.08,0l-.41-1.49.24-.19a6,6,0,0,0,1.72-2.16A4.93,4.93,0,0,0,36.84,21,6.41,6.41,0,0,0,35,18a4.9,4.9,0,0,0-4.1-1.28,6.26,6.26,0,0,0-4.61,2.89,5.05,5.05,0,0,0-.35,5.12,6.16,6.16,0,0,0,1.45,2,5.05,5.05,0,0,0,2.11,1.17c.09,0,.19,0,.22.15.17.55.33,1.09.51,1.66l-.92.23-.57.14A6.78,6.78,0,0,0,26,31.47c-.34.27-.69.53-1,.82a5.48,5.48,0,0,0-.65.71c-1.62,2-3.2,4-4.64,6-.95,1.39-1.85,2.82-2.77,4.23-.5.75-1,1.51-1.49,2.26a2.36,2.36,0,0,0-.42,1.1A3.82,3.82,0,0,0,15.09,48a2.36,2.36,0,0,0,1.76,1.76,2.36,2.36,0,0,0,2.49-.7,1.29,1.29,0,0,0,.22-.3C20.72,47,21.87,45.14,23,43.33A14.29,14.29,0,0,1,24,42l3.71-4.65L28,37.1a2.41,2.41,0,0,1,.11.25q1.21,3.27,2.42,6.55c.16.43.32.87.49,1.3a.67.67,0,0,1,0,.44l-.93,4.61-1.47,7.32q-.73,3.65-1.46,7.29l-1.32,6.55c-.06.28-.12.57-.18.9h3c-.06.44-.11.85-.17,1.25-.15,1.12-.31,2.25-.46,3.37-.12.81-.2,1.63-.35,2.43a4.93,4.93,0,0,0,.2,2.35,3.43,3.43,0,0,0,.76,1.37,2.87,2.87,0,0,0,2.27,1,2.11,2.11,0,0,0,1.61-.88,4.74,4.74,0,0,0,1-2.13c.36-1.79.69-3.59,1-5.38l.6-3.21a.15.15,0,0,1,0-.07c.19-.06,3.43-.08,3.84,0l.12.69c.37,2.23.73,4.45,1.09,6.68.09.54.17,1.09.27,1.63a3.49,3.49,0,0,0,1.08,2,2.79,2.79,0,0,0,2.1.68,2.63,2.63,0,0,0,.48-.06A2.41,2.41,0,0,0,46,82.16,4.56,4.56,0,0,0,46.1,80c-.26-1.44-.49-2.88-.74-4.32-.18-1-.37-2.09-.55-3.14,0-.06,0-.12,0-.22h4.37c0-.12-.06-.21-.08-.29q-2.64-8.8-5.27-17.62c-1-3.21-1.92-6.42-2.89-9.63a3.82,3.82,0,0,1-.12-1.11c0-1.62-.06-3.23-.09-4.84,0-1-.05-2.11-.07-3.16,0-.28,0-.57,0-.85a.4.4,0,0,1,0-.2l.16.2c.91,1.27,1.84,2.54,2.85,3.74.39.46.79.9,1.22,1.32a2.37,2.37,0,0,0,1.41.65,2.05,2.05,0,0,0,1.83-.75,4.5,4.5,0,0,0,1-1.83Q50,34.63,51,31.31c.21-.73.44-1.45.65-2.18a3.75,3.75,0,0,0,.13-1.79,1.84,1.84,0,0,0-1-1.29,2.63,2.63,0,0,0-1.31-.33,1.88,1.88,0,0,0-1.52.87,4.27,4.27,0,0,0-.65,1.52l-1.23,5Z"/><path class="cls-1" d="M42.21,24.16l17.72.71c-1-4.73-2-9.44-3.06-14.17L40.92,18.19Z"/><path class="cls-1" d="M69.66,6a1.14,1.14,0,0,0-.91,1.76l.5.69A19.8,19.8,0,0,1,72,13.55a13.81,13.81,0,0,1,.73,4.22,27.73,27.73,0,0,1-.56,5.61c0,.25-.1.49-.14.74a1.13,1.13,0,0,0,2.22.43c.25-1.16.43-2.33.57-3.51A27.49,27.49,0,0,0,75,18.16a16.31,16.31,0,0,0-1.24-6.39,23.87,23.87,0,0,0-3.15-5.36A1.16,1.16,0,0,0,69.66,6Z"/><path class="cls-1" d="M64.11,8.77a1.15,1.15,0,0,0,.3.8,17.36,17.36,0,0,1,2,2.93,13.57,13.57,0,0,1,1.41,4,13.72,13.72,0,0,1,.16,3.2,33,33,0,0,1-.54,4.21,1.15,1.15,0,0,0,.23,1,1.07,1.07,0,0,0,1.15.38,1.1,1.1,0,0,0,.84-.91c.07-.32.11-.63.16-.95.19-1.17.34-2.35.42-3.53A15.15,15.15,0,0,0,68.8,12.3a19.94,19.94,0,0,0-2.6-4.13,1.19,1.19,0,0,0-1-.51A1.11,1.11,0,0,0,64.11,8.77Z"/><path class="cls-1" d="M60.72,9.4a1.08,1.08,0,0,0-1,.68,1.13,1.13,0,0,0,.21,1.22c.38.45.77.89,1.11,1.37a11.78,11.78,0,0,1,2,4.62,13.47,13.47,0,0,1,.16,3.17,31.9,31.9,0,0,1-.39,3.37,1.14,1.14,0,1,0,2.23.42c.06-.38.12-.76.16-1.14.09-.86.19-1.72.25-2.58a13.93,13.93,0,0,0-2.23-8.72,13.19,13.19,0,0,0-1.56-2A1.23,1.23,0,0,0,60.72,9.4Z"/><path class="cls-1" d="M37.94,20c.07.4.14.78.21,1.15l.57,2.61a1,1,0,0,0,.9.81,1,1,0,0,0,1-.66,1,1,0,0,0,.05-.52c-.22-1.2-.47-2.39-.71-3.59a.9.9,0,0,0-.78-.76,1,1,0,0,0-1.1.49A2.79,2.79,0,0,0,37.94,20Z"/></svg>