<svg id="Layer_1" data-name="Layer 1" xmlns="http://www.w3.org/2000/svg" viewBox="0 0 90 90"><defs><style>.cls-1{fill:#fff;}</style></defs><path class="cls-1" d="M54.92,70.43c-.08.52-.17,1-.25,1.57a66.93,66.93,0,0,1-3,11.92,28.34,28.34,0,0,1-1.49,3.39.53.53,0,0,1-.54.31c-2.52,0-5,0-7.56,0h-.38c-.21-.42-.44-.83-.64-1.25A38.51,38.51,0,0,1,39,80.79a73,73,0,0,1-1.9-8.41c-.14-.85-.28-1.71-.4-2.57a.52.52,0,0,0-.29-.4,10.88,10.88,0,0,1-5.16-6.07,10,10,0,0,1-.58-3.16c0-.58,0-1.16,0-1.77a13.58,13.58,0,0,1-8.2-19.34,13.56,13.56,0,0,1,4.71-22.95,11,11,0,0,1,4.63-12,11,11,0,0,1,12.54.38l.27-.19a10.94,10.94,0,0,1,13.66.92,10.41,10.41,0,0,1,2.5,3.38.41.41,0,0,0,.32.25A8.81,8.81,0,0,1,68.07,16a8.63,8.63,0,0,1-1.26,6.37,3,3,0,0,1-.17.28,9.35,9.35,0,0,1,1.2,16.23,8.91,8.91,0,0,1-4.6,14.32,13.55,13.55,0,0,1-8.32,17.25ZM44.86,53.92v2c0,4.27,0,8.55.11,12.83,0,.46,0,.92,0,1.38A1.26,1.26,0,0,0,47.52,70c0-.67-.05-1.34-.06-2,0-1.19,0-2.38,0-3.57,0-.72,0-1.43,0-2.14s0-1.21,0-1.82l.27-.13,8.84-4,1.8-.81a1.24,1.24,0,0,0,.7-1.29,1.29,1.29,0,0,0-1-1.08,1.45,1.45,0,0,0-.91.16l-9.32,4.19-.36.15V47.19l1.66-.85,8.8-4.56c.71-.37,1.43-.73,2.14-1.11a1.25,1.25,0,0,0-.34-2.31,1.26,1.26,0,0,0-.91.14l-3.26,1.68-7,3.65-1,.54c0-.35,0-.66,0-1,0-2.71,0-5.42,0-8.13,0-.71,0-1.42,0-2.14a.41.41,0,0,1,.2-.38l6.56-5.05,3-2.32a1.29,1.29,0,0,0,.54-.81,1.25,1.25,0,0,0-.53-1.29,1.22,1.22,0,0,0-1.41,0c-.38.27-.75.57-1.12.85l-7,5.38c-.08.07-.16.17-.29.16,0-1,0-1.88-.05-2.81,0-.77,0-1.54,0-2.32,0-1.5-.09-3-.17-4.51s-.17-3-.27-4.47a4.71,4.71,0,0,0-.11-.84,1.25,1.25,0,0,0-2.46.3c0,.16,0,.32,0,.47.06.71.12,1.42.17,2.13q.09,1.44.15,2.88c0,1.08.08,2.15.11,3.23,0,.1,0,.21,0,.36l-.37-.24-6.39-4.26a2.4,2.4,0,0,0-.29-.19,1.21,1.21,0,0,0-1.36.13,1.17,1.17,0,0,0-.44,1.28,1.4,1.4,0,0,0,.65.84l7.81,5.2c.51.33.5.33.51.95,0,1.7,0,3.4,0,5.1,0,1.36,0,2.72,0,4.08,0,.08,0,.16,0,.27l-.19-.1L42.24,36l-6.87-3.56L33,31.18a1.24,1.24,0,0,0-1.26,0,1.2,1.2,0,0,0-.64,1.11,1.25,1.25,0,0,0,.72,1.13c1.21.62,2.42,1.24,3.62,1.87l7.41,3.83,1.94,1v11L44.49,51,32.88,45.7l-.29-.11A1.26,1.26,0,0,0,31,46.72,1.37,1.37,0,0,0,31.87,48c3.35,1.51,6.69,3,10,4.56Z"/></svg>