<svg id="Layer_1" data-name="Layer 1" xmlns="http://www.w3.org/2000/svg" viewBox="0 0 90 90"><defs><style>.cls-1{fill:#fff;}</style></defs><path class="cls-1" d="M61.91,33.05V18.3c.25-.07,7.72-.09,8.09,0v36.8c-.24.06-7.38.09-8.07,0,0-.34,0-.69,0-1V46.73l-.3,0h-24a1.12,1.12,0,0,0-.32,0,5.5,5.5,0,0,0-2.25,1.45,3.37,3.37,0,0,0-.87,2.3c0,3.4,0,6.79,0,10.18v.4H20.58a1.94,1.94,0,0,1,0-.24c0-3.65-.06-7.3,0-10.95A15.9,15.9,0,0,1,25,39a20,20,0,0,1,9.66-5.73A7,7,0,0,1,36.51,33h25.4Z"/><path class="cls-1" d="M27.34,63.41c.09.14.16.25.22.36q2.72,4.71,5.44,9.41c.26.45.57.87.81,1.33a7.29,7.29,0,1,1-13.68,4.58,7,7,0,0,1,1.45-5.79,4.87,4.87,0,0,0,.32-.47l5.23-9.06Z"/><path class="cls-1" d="M48.77,11.26H37.66a2.91,2.91,0,0,1-1.44-.34,1.79,1.79,0,0,1-1-1.7c0-.76,0-1.52,0-2.27a1.74,1.74,0,0,1,.88-1.59,2.84,2.84,0,0,1,1.35-.44H59.67a3.45,3.45,0,0,1,1.58.32A1.85,1.85,0,0,1,62.35,7c0,.72,0,1.45,0,2.17a1.82,1.82,0,0,1-1,1.7,2.81,2.81,0,0,1-1.5.37H48.77Z"/><path class="cls-1" d="M57.42,26.31V31c-.23.08-17.07.11-17.79,0-.07-.22-.1-4.05,0-4.73C39.82,26.25,57.08,26.23,57.42,26.31Z"/><path class="cls-1" d="M44.89,13.28h6.83c.07.25.11,10.24,0,11.25-.22.07-6.09.1-6.84,0C44.86,24.33,44.82,14.14,44.89,13.28Z"/></svg>